<?xml version="1.0" standalone="no"?>
<!DOCTYPE svg PUBLIC "-//W3C//DTD SVG 20010904//EN"
 "http://www.w3.org/TR/2001/REC-SVG-20010904/DTD/svg10.dtd">
<svg version="1.0" xmlns="http://www.w3.org/2000/svg"
 width="1280.000000pt" height="1280.000000pt" viewBox="0 0 1280.000000 1280.000000"
 preserveAspectRatio="xMidYMid meet">
<metadata>
Created by potrace 1.15, written by Peter Selinger 2001-2017
</metadata>
<g transform="translate(0.000000,1280.000000) scale(0.100000,-0.100000)"
fill="#000000" stroke="none">
<path d="M7726 11203 c-1 -2 -243 -3 -537 -4 -1101 -2 -2607 -18 -2737 -29
-607 -51 -1143 -357 -1528 -873 -203 -271 -330 -566 -389 -901 -29 -170 -35
-328 -25 -706 6 -201 17 -637 25 -970 8 -333 17 -686 20 -785 5 -194 8 -291
30 -1185 50 -1991 46 -1897 86 -2094 11 -54 34 -142 51 -194 32 -101 337 -810
415 -966 247 -493 748 -896 1288 -1037 171 -44 285 -60 485 -65 174 -5 241 -1
1095 75 501 45 1191 106 1535 136 840 74 866 78 1120 161 317 103 604 280 864
533 435 425 675 931 710 1501 3 47 8 189 11 315 3 127 12 483 21 792 16 616
13 720 -31 939 -97 481 -374 911 -784 1215 -140 104 -215 144 -708 378 -445
212 -549 253 -758 298 -127 27 -138 28 -435 27 -168 -1 -552 -11 -855 -23
-1100 -43 -1387 -53 -1391 -48 -3 3 -8 196 -11 431 -6 392 -5 427 11 445 19
21 -76 16 1121 51 1782 52 2086 61 2445 71 212 6 399 15 416 20 43 13 92 64
104 108 5 20 16 398 25 841 8 443 18 927 21 1075 6 269 6 270 -18 315 -42 81
-48 82 -508 125 -401 37 -409 37 -793 34 -214 -2 -390 -5 -391 -6z m-350
-6440 c-4 -153 -8 -278 -9 -280 -5 -4 -118 -12 -927 -63 -368 -23 -890 -57
-1027 -66 l-93 -6 0 281 0 281 23 4 c12 3 186 14 387 26 574 32 1531 89 1575
93 22 2 49 4 59 5 18 2 19 -6 12 -275z"/>
</g>
</svg>
