<?xml version="1.0" standalone="no"?>
<!DOCTYPE svg PUBLIC "-//W3C//DTD SVG 20010904//EN"
 "http://www.w3.org/TR/2001/REC-SVG-20010904/DTD/svg10.dtd">
<svg version="1.0" xmlns="http://www.w3.org/2000/svg"
 width="1280.000000pt" height="1280.000000pt" viewBox="0 0 1280.000000 1280.000000"
 preserveAspectRatio="xMidYMid meet">
<metadata>
Created by potrace 1.15, written by Peter Selinger 2001-2017
</metadata>
<g transform="translate(0.000000,1280.000000) scale(0.100000,-0.100000)"
fill="#000000" stroke="none">
<path d="M8278 11205 c-2 -3 -285 -5 -629 -6 -343 -1 -1625 -9 -2849 -20
-2016 -16 -2228 -20 -2261 -35 -52 -23 -82 -68 -87 -129 -4 -46 4 -401 39
-1695 5 -217 15 -410 20 -428 15 -45 348 -348 401 -364 29 -8 218 -6 785 11
1484 43 2077 61 2613 76 300 8 584 17 633 19 48 2 87 0 87 -4 0 -5 -242 -548
-539 -1207 -296 -659 -900 -2001 -1341 -2983 -441 -982 -836 -1859 -877 -1950
-57 -125 -76 -176 -76 -210 0 -40 24 -90 203 -425 111 -209 213 -397 227 -418
33 -52 97 -81 161 -73 26 4 533 49 1127 101 594 52 1092 100 1106 106 15 6 39
23 53 38 17 17 571 1210 1455 3132 786 1707 1476 3201 1534 3319 123 254 146
309 191 468 98 338 126 589 141 1227 5 264 12 528 24 970 4 149 4 284 -1 301
-11 41 -42 81 -79 100 -21 10 -150 25 -432 49 l-402 35 -611 0 c-336 0 -613
-3 -616 -5z"/>
</g>
</svg>
