<?xml version="1.0" standalone="no"?>
<!DOCTYPE svg PUBLIC "-//W3C//DTD SVG 20010904//EN"
 "http://www.w3.org/TR/2001/REC-SVG-20010904/DTD/svg10.dtd">
<svg version="1.0" xmlns="http://www.w3.org/2000/svg"
 width="1280.000000pt" height="1280.000000pt" viewBox="0 0 1280.000000 1280.000000"
 preserveAspectRatio="xMidYMid meet">
<metadata>
Created by potrace 1.15, written by Peter Selinger 2001-2017
</metadata>
<g transform="translate(0.000000,1280.000000) scale(0.100000,-0.100000)"
fill="#000000" stroke="none">
<path d="M5530 11189 c-532 -4 -1002 -13 -1075 -19 -270 -23 -495 -84 -732
-200 -563 -275 -1000 -809 -1153 -1409 -60 -235 -73 -418 -60 -855 5 -188 14
-555 20 -816 6 -261 15 -524 21 -585 26 -287 119 -567 255 -766 30 -44 54 -82
54 -84 0 -2 -12 -21 -26 -42 -76 -112 -155 -312 -198 -504 -39 -179 -49 -298
-42 -544 4 -121 13 -485 21 -810 19 -743 30 -852 107 -1094 39 -124 386 -920
449 -1031 267 -473 748 -843 1264 -974 166 -42 280 -57 475 -62 174 -5 241 -1
1095 75 501 45 1191 106 1535 136 344 30 675 62 735 70 238 34 439 96 661 205
601 294 1095 904 1242 1535 45 193 58 326 67 705 3 124 12 475 21 780 16 595
12 701 -27 894 -39 190 -108 369 -191 492 l-35 52 40 58 c135 199 241 533 266
839 12 145 43 1272 45 1655 1 361 -24 543 -115 808 -150 436 -465 839 -864
1105 -196 130 -469 242 -701 287 -57 11 -299 40 -537 65 l-432 45 -620 -2
c-341 -1 -1045 -5 -1565 -9z m1870 -2965 c0 -274 -4 -432 -10 -445 -9 -16 -22
-19 -97 -19 -47 0 -322 -9 -612 -20 -289 -11 -717 -27 -949 -36 -233 -8 -426
-13 -428 -11 -3 3 -8 196 -11 431 -6 392 -5 427 11 445 15 16 39 19 229 25
182 6 1374 40 1672 49 55 2 121 4 148 5 l47 2 0 -426z m-24 -3461 c-4 -153 -8
-278 -9 -280 -5 -4 -118 -12 -927 -63 -368 -23 -890 -57 -1027 -66 l-93 -6 0
281 0 281 23 4 c12 3 186 14 387 26 574 32 1531 89 1575 93 22 2 49 4 59 5 18
2 19 -6 12 -275z"/>
</g>
</svg>
