<?xml version="1.0" standalone="no"?>
<!DOCTYPE svg PUBLIC "-//W3C//DTD SVG 20010904//EN"
 "http://www.w3.org/TR/2001/REC-SVG-20010904/DTD/svg10.dtd">
<svg version="1.0" xmlns="http://www.w3.org/2000/svg"
 width="1262.000000pt" height="1280.000000pt" viewBox="0 0 1262.000000 1280.000000"
 preserveAspectRatio="xMidYMid meet">
<metadata>
Created by potrace 1.15, written by Peter Selinger 2001-2017
</metadata>
<g transform="translate(0.000000,1280.000000) scale(0.100000,-0.100000)"
fill="#000000" stroke="none">
<path d="M6931 12785 c-136 -31 -273 -115 -386 -237 -414 -447 -702 -1531
-816 -3070 -12 -167 -23 -304 -24 -305 -1 -2 -17 2 -36 7 -35 11 -127 26 -333
56 -96 14 -131 16 -182 7 -133 -23 -251 -107 -313 -222 -44 -84 -151 -476
-151 -556 l0 -61 -62 8 c-134 16 -544 21 -704 9 -567 -44 -1069 -178 -1561
-420 -383 -188 -700 -406 -1015 -698 -617 -571 -1057 -1332 -1242 -2148 -146
-650 -140 -1319 19 -1957 423 -1697 1856 -2961 3590 -3167 799 -95 1595 36
2320 384 681 326 1265 834 1691 1472 726 1086 901 2475 469 3713 -289 828
-827 1545 -1545 2056 -135 96 -378 246 -472 290 l-38 18 24 30 c46 61 75 134
129 332 50 180 64 245 84 376 8 57 -26 116 -115 199 -64 60 -99 82 -217 139
-77 38 -179 81 -227 96 l-88 28 5 66 c3 36 12 155 20 265 82 1089 255 1965
500 2531 163 376 383 635 606 714 97 34 250 39 360 12 106 -27 297 -122 404
-202 258 -193 461 -412 793 -854 336 -448 508 -652 767 -911 694 -694 1279
-881 1760 -561 97 65 256 227 335 341 30 44 82 129 116 188 51 90 62 104 67
85 3 -13 31 -151 62 -308 31 -157 59 -292 62 -300 3 -8 36 135 73 318 37 183
69 334 72 337 2 2 121 -73 264 -169 142 -95 273 -181 289 -192 l30 -19 -19 30
c-11 17 -97 147 -193 290 -117 175 -169 262 -160 266 6 4 157 35 334 70 178
35 323 66 323 69 0 3 -145 34 -323 69 -177 35 -328 67 -334 70 -9 5 44 92 160
266 96 143 182 274 193 290 l19 30 -30 -19 c-16 -11 -147 -97 -290 -193 -174
-116 -261 -169 -266 -160 -3 6 -35 157 -70 334 -35 177 -66 319 -70 315 -3 -4
-34 -151 -69 -327 -35 -176 -66 -323 -69 -327 -4 -4 -123 70 -266 165 -143 96
-273 182 -288 192 -20 13 28 -66 162 -271 106 -160 186 -291 181 -294 -6 -4
-157 -35 -335 -71 -179 -35 -325 -66 -325 -69 0 -3 146 -34 325 -69 178 -35
329 -67 334 -71 6 -3 -4 -28 -26 -60 -146 -217 -341 -520 -331 -514 7 4 133
88 281 186 147 98 267 175 267 170 0 -4 -29 -58 -63 -119 -209 -366 -456 -579
-739 -637 -402 -83 -858 132 -1392 654 -259 254 -430 454 -751 880 -277 368
-358 464 -549 656 -256 256 -437 381 -656 454 -114 39 -247 48 -349 25z
m-1301 -3621 c39 -8 72 -20 76 -25 6 -11 -18 -6 -105 21 -71 23 -60 24 29 4z
m208 -59 c30 -9 52 -18 50 -20 -6 -7 -158 38 -158 46 0 4 12 4 28 -1 15 -5 51
-16 80 -25z m516 -375 l6 -35 -14 30 c-7 17 -17 41 -21 55 -7 24 -6 24 8 5 8
-11 17 -36 21 -55z"/>
</g>
</svg>
